<svg width="29" height="17" viewBox="0 0 29 17" fill="none" xmlns="http://www.w3.org/2000/svg">
<path d="M9.74219 0.945312C10.5312 0.945312 11.2461 1.0625 11.8867 1.29688C12.5273 1.53125 13.0703 1.85156 13.5156 2.25781C13.9688 2.66406 14.3164 3.14062 14.5586 3.6875C14.8008 4.22656 14.9219 4.80078 14.9219 5.41016V12.5352C14.9219 13.1445 14.8008 13.7227 14.5586 14.2695C14.3164 14.8086 13.9688 15.2812 13.5156 15.6875C13.0703 16.0938 12.5273 16.4141 11.8867 16.6484C11.2461 16.8828 10.5312 17 9.74219 17H6.13281C5.34375 17 4.62891 16.8828 3.98828 16.6484C3.34766 16.4141 2.80078 16.0938 2.34766 15.6875C1.90234 15.2812 1.55859 14.8086 1.31641 14.2695C1.07422 13.7227 0.953125 13.1445 0.953125 12.5352V5.41016C0.953125 4.80078 1.07422 4.22656 1.31641 3.6875C1.55859 3.14062 1.90234 2.66406 2.34766 2.25781C2.80078 1.85156 3.34766 1.53125 3.98828 1.29688C4.62891 1.0625 5.34375 0.945312 6.13281 0.945312H9.74219ZM8.99219 2V9.60547L8.82812 10.3086L8.05469 10.4492H6.30859V11.6914H8.125L9.30859 11.5273L10.2227 10.8125V2H8.99219ZM23.6172 0.945312C24.4062 0.945312 25.1211 1.0625 25.7617 1.29688C26.4023 1.53125 26.9453 1.85156 27.3906 2.25781C27.8438 2.66406 28.1914 3.14062 28.4336 3.6875C28.6758 4.22656 28.7969 4.80078 28.7969 5.41016V12.5352C28.7969 13.1445 28.6758 13.7227 28.4336 14.2695C28.1914 14.8086 27.8438 15.2812 27.3906 15.6875C26.9453 16.0938 26.4023 16.4141 25.7617 16.6484C25.1211 16.8828 24.4062 17 23.6172 17H20.0078C19.2188 17 18.5039 16.8828 17.8633 16.6484C17.2227 16.4141 16.6758 16.0938 16.2227 15.6875C15.7773 15.2812 15.4336 14.8086 15.1914 14.2695C14.9492 13.7227 14.8281 13.1445 14.8281 12.5352V5.41016C14.8281 4.80078 14.9492 4.22656 15.1914 3.6875C15.4336 3.14062 15.7773 2.66406 16.2227 2.25781C16.6758 1.85156 17.2227 1.53125 17.8633 1.29688C18.5039 1.0625 19.2188 0.945312 20.0078 0.945312H23.6172ZM25.5039 7.97656L25.2812 7.10938L24.3438 6.69922L25.2812 6.34766L25.5039 5.45703V3.89844L25.3398 2.91406L24.6016 2.16406L23.3945 2H18.4727V11.6914H23.3945L24.6016 11.5508L25.3398 10.8125L25.5039 9.82812V7.97656ZM24.0977 10.332L23.3242 10.4492H19.7266V7.35547H23.3477L24.1445 7.44922L24.2617 8.14062V9.69922L24.0977 10.332ZM24.0977 5.98438L23.3242 6.125H19.7266V3.24219H23.3242L24.1445 3.37109L24.0977 4.0625L24.2617 5.36328L24.0977 5.98438Z" fill="black"/>
</svg>
